<svg width="24" height="24" viewBox="0 0 24 24" fill="none" xmlns="http://www.w3.org/2000/svg">
<path fill-rule="evenodd" clip-rule="evenodd" d="M4 2C4.57523 2 5.06669 2.27762 5.39453 2.60547C5.72238 2.93331 6 3.42477 6 4C6 4.57523 5.72238 5.06669 5.39453 5.39453C5.06669 5.72238 4.57523 6 4 6C3.42477 6 2.93331 5.72238 2.60547 5.39453C2.27762 5.06669 2 4.57523 2 4C2 3.42477 2.27762 2.93331 2.60547 2.60547C2.93331 2.27762 3.42477 2 4 2ZM12 2C12.5752 2 13.0667 2.27762 13.3945 2.60547C13.7224 2.93331 14 3.42477 14 4C14 4.57523 13.7224 5.06669 13.3945 5.39453C13.0667 5.72238 12.5752 6 12 6C11.4248 6 10.9333 5.72238 10.6055 5.39453C10.2776 5.06669 10 4.57523 10 4C10 3.42477 10.2776 2.93331 10.6055 2.60547C10.9333 2.27762 11.4248 2 12 2ZM21.3945 2.60547C21.0667 2.27762 20.5752 2 20 2C19.4248 2 18.9333 2.27762 18.6055 2.60547C18.2776 2.93331 18 3.42477 18 4C18 4.57523 18.2776 5.06669 18.6055 5.39453C18.9333 5.72238 19.4248 6 20 6C20.5752 6 21.0667 5.72238 21.3945 5.39453C21.7224 5.06669 22 4.57523 22 4C22 3.42477 21.7224 2.93331 21.3945 2.60547ZM4 10C4.57523 10 5.06669 10.2776 5.39453 10.6055C5.72238 10.9333 6 11.4248 6 12C6 12.5752 5.72238 13.0667 5.39453 13.3945C5.06669 13.7224 4.57523 14 4 14C3.42477 14 2.93331 13.7224 2.60547 13.3945C2.27762 13.0667 2 12.5752 2 12C2 11.4248 2.27762 10.9333 2.60547 10.6055C2.93331 10.2776 3.42477 10 4 10ZM13.3945 10.6055C13.0667 10.2776 12.5752 10 12 10C11.4248 10 10.9333 10.2776 10.6055 10.6055C10.2776 10.9333 10 11.4248 10 12C10 12.5752 10.2776 13.0667 10.6055 13.3945C10.9333 13.7224 11.4248 14 12 14C12.5752 14 13.0667 13.7224 13.3945 13.3945C13.7224 13.0667 14 12.5752 14 12C14 11.4248 13.7224 10.9333 13.3945 10.6055ZM20 10C20.5752 10 21.0667 10.2776 21.3945 10.6055C21.7224 10.9333 22 11.4248 22 12C22 12.5752 21.7224 13.0667 21.3945 13.3945C21.0667 13.7224 20.5752 14 20 14C19.4248 14 18.9333 13.7224 18.6055 13.3945C18.2776 13.0667 18 12.5752 18 12C18 11.4248 18.2776 10.9333 18.6055 10.6055C18.9333 10.2776 19.4248 10 20 10ZM5.39453 18.6055C5.06669 18.2776 4.57523 18 4 18C3.42477 18 2.93331 18.2776 2.60547 18.6055C2.27762 18.9333 2 19.4248 2 20C2 20.5752 2.27762 21.0667 2.60547 21.3945C2.93331 21.7224 3.42477 22 4 22C4.57523 22 5.06669 21.7224 5.39453 21.3945C5.72238 21.0667 6 20.5752 6 20C6 19.4248 5.72238 18.9333 5.39453 18.6055ZM12 18C12.5752 18 13.0667 18.2776 13.3945 18.6055C13.7224 18.9333 14 19.4248 14 20C14 20.5752 13.7224 21.0667 13.3945 21.3945C13.0667 21.7224 12.5752 22 12 22C11.4248 22 10.9333 21.7224 10.6055 21.3945C10.2776 21.0667 10 20.5752 10 20C10 19.4248 10.2776 18.9333 10.6055 18.6055C10.9333 18.2776 11.4248 18 12 18ZM21.3945 18.6055C21.0667 18.2776 20.5752 18 20 18C19.4248 18 18.9333 18.2776 18.6055 18.6055C18.2776 18.9333 18 19.4248 18 20C18 20.5752 18.2776 21.0667 18.6055 21.3945C18.9333 21.7224 19.4248 22 20 22C20.5752 22 21.0667 21.7224 21.3945 21.3945C21.7224 21.0667 22 20.5752 22 20C22 19.4248 21.7224 18.9333 21.3945 18.6055Z" fill="#F0F9FF"/>
</svg>
