<svg width="20" height="24" viewBox="0 0 20 24" fill="none" xmlns="http://www.w3.org/2000/svg">
<path d="M11.0346 8.95483C11.0448 8.96792 13.1337 11.643 16.0687 13.1505C18.1143 14.2106 19.7922 15.2933 19.9762 17.0525C19.996 17.263 20.0023 17.4667 19.9975 17.6636C19.0988 18.9265 16.9029 19.7597 14.2593 20.165C14.7224 19.7869 15.1837 19.2024 15.218 18.3608C15.3099 16.1053 14.2296 15.203 12.9424 14.1655C12.5976 13.8723 12.1379 13.5337 11.7242 13.1728C11.1725 12.6766 10.8506 11.9775 10.8276 11.2332C10.7587 10.376 10.8507 9.33829 11.0346 8.95483ZM8.96569 8.95483C9.14956 9.33832 9.24164 10.3761 9.17269 11.2332C9.14969 11.9775 8.82774 12.6766 8.27615 13.1728C7.86243 13.5337 7.40272 13.8723 7.05793 14.1655C5.77072 15.2031 4.69043 16.1053 4.78234 18.3608C4.81352 19.1259 5.19753 19.6784 5.61496 20.0566C3.16716 19.6199 1.07745 18.8221 0.00248089 17.6629C-0.00233852 17.4663 0.00430176 17.2628 0.0241397 17.0525C0.208113 15.2933 1.88597 14.2106 3.93161 13.1505C6.87381 11.6392 8.96569 8.95483 8.96569 8.95483Z" fill="#F09021"/>
<path d="M19.9988 17.6615C19.9988 19.06 19.1945 20.6616 17.8613 21.9022C16.4592 23.233 14.6202 24 12.8273 24H7.17254C5.40261 24 3.56358 23.233 2.13845 21.9022C0.805325 20.639 0.000976562 19.06 0.000976562 17.6615C3.44892 21.3833 17.3554 21.3833 19.9988 17.6615ZM6.87393 0C7.17262 9.06267e-05 7.40254 0.180522 7.4715 0.428559C7.51744 0.676598 7.40261 0.924892 7.17289 1.06025C2.7136 3.56398 6.11528 6.72186 7.4715 7.53393C8.38095 8.07383 8.78532 8.55485 8.95886 8.96316C8.89159 9.04826 8.32683 9.75323 7.41327 10.6178C6.44621 9.69701 5.34779 8.98505 4.34553 8.34576C2.52962 7.19539 0.989449 6.18042 0.805549 4.39848C0.713608 3.27067 0.989325 2.32315 1.65592 1.60135C2.87422 0.270635 5.173 4.91426e-06 6.87393 0ZM13.1262 0C14.8272 2.38748e-05 17.126 0.270613 18.3442 1.60135C19.0108 2.32313 19.2865 3.27073 19.1946 4.39848C19.0107 6.18038 17.4705 7.19542 15.6546 8.34576C14.6522 8.98512 13.5533 9.69686 12.5862 10.6178C11.6355 9.71805 11.0631 8.99086 11.0356 8.95584C11.2138 8.54907 11.6245 8.07068 12.5287 7.53393C13.8849 6.72176 17.2862 3.56389 12.8273 1.06025C12.5975 0.924901 12.4827 0.676654 12.5287 0.428559C12.5976 0.180485 12.8274 6.02959e-06 13.1262 0Z" fill="#E85C26"/>
</svg>
